<svg xmlns="http://www.w3.org/2000/svg" width="16" height="16" viewBox="0 0 16 16" fill="none">
<path d="M5.33333 4.00065C6.06971 4.00065 6.66666 3.4037 6.66666 2.66732C6.66666 1.93094 6.06971 1.33398 5.33333 1.33398C4.59695 1.33398 4 1.93094 4 2.66732C4 3.4037 4.59695 4.00065 5.33333 4.00065Z" fill="#333333"/>
<path d="M5.33333 9.33268C6.06971 9.33268 6.66666 8.73572 6.66666 7.99935C6.66666 7.26297 6.06971 6.66602 5.33333 6.66602C4.59695 6.66602 4 7.26297 4 7.99935C4 8.73572 4.59695 9.33268 5.33333 9.33268Z" fill="#333333"/>
<path d="M5.33333 14.6667C6.06971 14.6667 6.66666 14.0697 6.66666 13.3333C6.66666 12.597 6.06971 12 5.33333 12C4.59695 12 4 12.597 4 13.3333C4 14.0697 4.59695 14.6667 5.33333 14.6667Z" fill="#333333"/>
<path d="M10.6673 4.00065C11.4037 4.00065 12.0006 3.4037 12.0006 2.66732C12.0006 1.93094 11.4037 1.33398 10.6673 1.33398C9.93094 1.33398 9.33398 1.93094 9.33398 2.66732C9.33398 3.4037 9.93094 4.00065 10.6673 4.00065Z" fill="#333333"/>
<path d="M10.6673 9.33268C11.4037 9.33268 12.0006 8.73572 12.0006 7.99935C12.0006 7.26297 11.4037 6.66602 10.6673 6.66602C9.93094 6.66602 9.33398 7.26297 9.33398 7.99935C9.33398 8.73572 9.93094 9.33268 10.6673 9.33268Z" fill="#333333"/>
<path d="M10.6673 14.6667C11.4037 14.6667 12.0006 14.0697 12.0006 13.3333C12.0006 12.597 11.4037 12 10.6673 12C9.93094 12 9.33398 12.597 9.33398 13.3333C9.33398 14.0697 9.93094 14.6667 10.6673 14.6667Z" fill="#333333"/>
</svg>